<?xml version="1.0" standalone="no"?>
<!DOCTYPE svg PUBLIC "-//W3C//DTD SVG 20010904//EN"
 "http://www.w3.org/TR/2001/REC-SVG-20010904/DTD/svg10.dtd">
<svg version="1.0" xmlns="http://www.w3.org/2000/svg"
 width="796.000000pt" height="796.000000pt" viewBox="0 0 796.000000 796.000000"
 preserveAspectRatio="xMidYMid meet">
<metadata>
Created by potrace 1.11, written by Peter Selinger 2001-2013
</metadata>
<g transform="translate(0.000000,796.000000) scale(0.100000,-0.100000)"
fill="#000000" stroke="none">
<path d="M4257 7394 c-1 -1 -81 -4 -177 -7 -96 -4 -184 -9 -196 -11 -11 -2
-54 -7 -95 -11 -121 -11 -348 -51 -499 -90 -8 -2 -37 -8 -64 -15 -137 -31
-448 -148 -625 -235 -381 -187 -814 -523 -1101 -855 -30 -34 -60 -68 -65 -74
-6 -6 -51 -65 -101 -131 -224 -299 -397 -627 -552 -1045 -114 -309 -183 -593
-228 -935 -26 -200 -25 -698 1 -835 3 -13 7 -42 10 -65 4 -22 9 -56 11 -75 8
-50 41 -201 65 -289 78 -291 208 -577 387 -850 175 -268 450 -567 702 -763
247 -192 547 -355 845 -456 102 -35 291 -87 349 -96 21 -4 41 -8 45 -11 4 -2
30 -7 57 -10 27 -4 67 -10 89 -15 22 -5 72 -11 110 -15 39 -4 77 -8 85 -10 86
-22 680 -22 830 0 14 2 54 6 90 10 77 7 176 21 283 42 42 8 90 16 105 19 62
11 275 67 387 104 418 134 795 344 1145 636 94 79 394 388 465 480 17 21 42
52 56 69 73 86 248 350 324 490 21 39 50 93 65 120 155 282 306 739 369 1115
28 164 31 190 46 335 32 318 23 796 -20 1015 -2 14 -7 36 -9 50 -10 57 -37
179 -52 230 -8 30 -16 60 -18 65 -14 55 -75 226 -112 312 -184 431 -470 801
-874 1130 -359 292 -884 529 -1350 608 -19 3 -42 8 -50 10 -8 2 -35 7 -60 10
-25 3 -56 8 -70 10 -23 4 -100 13 -180 20 -86 8 -418 23 -423 19z m-367 -368
c25 -3 65 -8 90 -11 25 -3 56 -7 70 -10 13 -3 42 -7 65 -11 71 -10 306 -73
426 -114 240 -81 530 -216 764 -353 377 -221 644 -445 970 -811 58 -65 279
-368 320 -438 162 -278 231 -422 311 -651 36 -103 106 -373 119 -457 4 -25 9
-54 11 -64 6 -33 23 -168 30 -241 10 -106 12 -430 3 -515 -46 -425 -177 -801
-406 -1168 -59 -95 -158 -239 -173 -252 -3 -3 -29 -34 -59 -70 -392 -478
-1021 -848 -1656 -975 -211 -42 -286 -49 -510 -49 -446 -1 -783 77 -1190 274
-370 179 -759 483 -1074 839 -31 35 -65 73 -76 85 -28 29 -126 154 -155 196
-13 19 -27 37 -30 40 -3 3 -35 48 -71 100 -196 287 -339 572 -443 885 -43 128
-107 369 -121 455 -3 19 -10 60 -15 90 -5 30 -12 80 -16 110 -3 30 -8 66 -10
80 -29 169 -22 722 11 870 1 3 5 25 9 50 4 25 21 97 37 161 109 441 322 806
668 1149 314 311 662 535 1043 674 70 25 133 46 140 46 7 0 31 7 53 14 22 8
54 17 70 20 169 31 275 47 350 52 50 4 91 7 93 9 5 4 307 -3 352 -9z"/>
<path d="M5666 6235 c4 -10 -11 -31 -42 -59 -27 -25 -71 -65 -99 -90 -27 -26
-53 -46 -58 -46 -4 0 -5 -4 -2 -10 3 -5 2 -10 -4 -10 -5 0 -26 -16 -47 -35
-20 -19 -41 -35 -46 -35 -5 0 -6 -4 -3 -10 3 -5 2 -10 -3 -10 -13 0 -72 -55
-72 -68 0 -6 6 -17 13 -24 6 -7 26 -33 42 -58 17 -25 38 -54 48 -64 9 -11 17
-25 17 -32 0 -7 4 -14 8 -16 8 -3 76 -98 141 -196 23 -34 24 -35 38 -16 8 10
16 29 20 42 3 12 9 22 14 22 5 0 9 6 9 13 0 17 83 105 133 141 20 15 37 25 37
22 0 -3 12 -1 28 5 57 23 156 6 200 -34 12 -11 22 -17 22 -13 0 13 44 -46 69
-92 31 -59 35 -168 6 -232 -37 -85 -148 -176 -235 -194 -14 -3 -40 -9 -58 -15
-37 -11 -36 -11 -58 -11 -13 0 -14 -3 -4 -15 8 -10 23 -12 53 -8 23 3 51 7 62
7 11 1 25 4 30 7 6 4 24 9 40 13 45 11 125 63 173 113 66 70 95 141 97 243 1
50 -4 98 -11 116 -7 17 -11 34 -8 36 2 3 -2 11 -11 18 -8 7 -15 18 -15 25 0
13 -53 70 -104 113 -71 59 -207 75 -307 34 -35 -14 -75 -36 -88 -49 -13 -12
-27 -23 -32 -23 -11 0 -109 -122 -105 -129 2 -3 -2 -12 -9 -18 -11 -10 -18 -7
-36 20 -13 17 -28 35 -34 39 -5 4 -6 8 -2 8 4 0 3 6 -3 13 -23 28 -78 103 -88
123 -12 23 -18 16 198 213 25 23 49 41 53 41 5 0 5 5 2 10 -3 6 -3 10 2 10 12
0 93 78 93 89 0 5 -3 11 -7 13 -5 2 -16 20 -25 41 -17 35 -44 54 -32 22z"/>
<path d="M4956 5589 c-8 -12 -13 -29 -11 -40 2 -10 7 -49 10 -86 4 -37 8 -86
10 -108 14 -128 19 -179 30 -300 2 -27 6 -66 9 -85 2 -19 7 -71 11 -115 9
-100 10 -103 17 -111 4 -3 27 14 51 38 25 23 75 70 112 103 37 33 88 79 114
102 25 23 49 39 52 35 59 -68 125 -136 131 -135 5 2 7 -1 5 -6 -1 -5 15 -27
36 -49 42 -47 46 -68 17 -105 -46 -58 -15 -36 94 67 23 21 52 48 66 60 14 12
30 28 35 36 6 12 4 11 -11 -1 -45 -39 -85 -27 -139 40 -11 14 -39 45 -62 69
-24 24 -43 46 -43 48 0 3 -12 17 -26 31 l-26 26 66 61 c36 34 66 69 66 79 0
10 -4 15 -10 12 -5 -3 -10 2 -10 11 0 10 -3 14 -7 11 -3 -4 -12 1 -20 11 -14
16 -14 16 -9 -2 5 -13 -9 -34 -53 -77 l-59 -59 -93 101 c-52 56 -102 111 -112
123 -10 11 -55 60 -99 109 -45 48 -89 96 -98 107 -22 25 -25 25 -44 -1z m94
-232 c0 -5 5 -5 10 -2 6 3 10 1 10 -4 0 -11 55 -74 138 -158 23 -24 42 -48 42
-54 0 -5 6 -12 14 -15 8 -3 22 -16 30 -29 13 -20 14 -26 2 -37 -23 -22 -158
-144 -201 -181 -27 -24 -42 -32 -46 -24 -6 10 -13 66 -24 182 -1 17 -6 62 -10
100 -7 72 -11 121 -21 235 l-5 65 30 -35 c17 -19 30 -39 31 -43z"/>
<path d="M4410 5029 c-19 -4 -38 -5 -42 -3 -5 3 -8 1 -8 -4 0 -6 -10 -12 -22
-16 -56 -14 -175 -136 -179 -183 0 -5 -5 -13 -9 -18 -24 -29 -33 -216 -11
-238 17 -17 36 6 23 29 -18 35 -4 161 25 221 17 36 82 106 103 109 3 0 14 5
25 10 32 14 117 9 155 -10 46 -22 87 -46 79 -46 -4 0 11 -18 33 -41 53 -54
103 -163 128 -274 16 -75 19 -116 15 -250 -2 -88 -6 -173 -8 -190 -5 -32 -16
-118 -20 -149 -3 -31 16 -28 55 7 19 18 66 60 104 94 38 33 90 81 115 105 44
40 179 163 221 199 24 21 24 23 -14 102 -33 68 -51 85 -48 45 1 -13 2 -33 1
-46 -1 -23 -77 -102 -227 -237 -43 -38 -88 -79 -99 -90 -54 -51 -56 -51 -50
-9 16 123 23 430 12 519 -9 71 -34 159 -57 205 -58 114 -188 182 -300 159z"/>
<path d="M3818 4495 c-3 -3 -15 -7 -26 -10 -42 -8 -92 -38 -144 -86 -29 -27
-49 -49 -45 -49 4 0 -1 -9 -11 -20 -39 -42 -60 -165 -42 -247 12 -53 48 -133
62 -133 4 0 8 -4 8 -10 0 -5 9 -19 20 -30 11 -11 25 -20 30 -20 6 0 10 -4 10
-9 0 -14 64 -49 117 -64 74 -21 171 -12 221 19 12 8 22 12 22 9 0 -4 7 0 15 9
8 8 25 23 38 33 64 51 109 154 109 248 0 6 -3 20 -6 33 -2 12 -1 22 5 22 5 0
9 -5 9 -10 0 -6 9 -20 20 -32 10 -12 17 -25 14 -30 -3 -4 -1 -8 4 -8 10 0 49
-96 57 -140 22 -118 22 -156 1 -265 -5 -27 -61 -143 -86 -180 -22 -33 -25 -45
-11 -45 13 0 91 107 84 114 -4 3 -1 6 5 6 7 0 11 3 10 8 -1 4 7 25 19 47 59
114 78 256 52 387 -17 86 -66 205 -94 228 -8 7 -15 18 -15 24 -1 31 -190 183
-211 170 -5 -3 -9 0 -9 7 0 7 -3 9 -7 6 -3 -4 -12 -2 -20 5 -14 11 -195 22
-205 13z m102 -109 c103 -31 190 -89 231 -156 36 -58 17 -193 -34 -244 -32
-32 -101 -62 -150 -65 -50 -3 -137 14 -172 32 -11 6 -22 12 -25 12 -18 3 -72
39 -106 72 -57 55 -73 85 -79 147 -6 62 8 105 46 147 25 27 99 75 99 64 0 -3
7 -2 16 3 21 11 117 5 174 -12z"/>
<path d="M3323 4090 c-13 -10 -23 -23 -23 -29 0 -6 -5 -11 -11 -11 -6 0 -28
-17 -49 -37 -21 -21 -63 -60 -95 -88 -31 -27 -74 -66 -94 -85 -21 -19 -60 -55
-86 -80 -27 -25 -62 -55 -79 -67 -16 -13 -26 -23 -22 -23 5 0 -2 -8 -14 -18
-20 -16 -21 -21 -9 -42 8 -13 22 -33 31 -43 9 -11 22 -32 28 -48 16 -37 33
-38 27 -1 -3 16 1 43 9 60 13 33 106 129 234 242 41 36 81 72 90 80 9 8 28 26
43 39 l26 23 12 -43 c7 -24 13 -46 14 -49 1 -3 10 -32 20 -65 11 -33 19 -62
20 -65 1 -3 4 -14 7 -25 4 -11 21 -67 38 -125 17 -58 34 -112 37 -120 3 -8 7
-19 8 -25 2 -5 10 -32 18 -60 40 -131 79 -261 82 -275 2 -8 9 -28 15 -45 11
-28 17 -51 24 -84 4 -24 23 -24 46 -1 21 21 21 25 5 80 -1 3 -7 25 -14 50 -7
25 -17 54 -22 65 -5 11 -12 30 -14 43 -10 45 -13 58 -25 87 -6 17 -13 38 -15
48 -2 9 -18 61 -35 115 -17 53 -33 105 -35 115 -2 10 -18 63 -36 119 -17 56
-32 106 -34 112 -1 6 -5 18 -8 26 -3 8 -21 69 -41 134 -19 66 -39 123 -43 127
-4 4 -18 -1 -30 -11z"/>
<path d="M2709 3415 c-3 -2 -25 -5 -49 -6 -25 -2 -59 -8 -76 -15 -17 -7 -34
-10 -38 -7 -3 4 -6 1 -6 -5 0 -7 -6 -12 -13 -12 -16 0 -123 -98 -120 -111 2
-5 -1 -9 -6 -9 -5 0 -19 -23 -31 -52 -24 -56 -31 -139 -18 -203 10 -50 38
-115 50 -115 4 0 8 -6 8 -13 0 -19 67 -80 123 -112 42 -24 75 -33 142 -38 40
-2 121 14 143 29 12 8 22 12 22 9 0 -5 14 5 43 31 27 25 77 84 71 84 -4 0 0 8
8 18 24 27 40 89 40 153 0 33 1 59 3 59 1 0 16 -22 32 -49 56 -89 87 -206 85
-316 0 -46 -2 -61 -16 -122 -7 -32 -65 -153 -89 -185 -20 -27 -19 -46 2 -34
14 9 81 111 81 123 0 6 7 13 15 17 8 3 14 9 13 13 -1 4 10 40 24 78 67 175 51
360 -44 526 -78 136 -210 235 -339 254 -24 4 -46 8 -50 11 -3 2 -8 2 -10 -1z
m-31 -105 c1 -2 5 -3 10 -4 4 -1 21 -6 39 -10 89 -21 197 -98 227 -161 23 -48
24 -131 2 -177 -21 -43 -91 -108 -126 -117 -83 -19 -175 -5 -274 44 -48 24
-126 85 -126 99 0 4 -9 19 -20 34 -23 33 -33 104 -20 152 14 52 81 117 137
133 37 11 140 15 151 7z"/>
<path d="M2015 2845 c-109 -30 -139 -47 -207 -120 -55 -58 -87 -148 -83 -238
3 -59 24 -137 38 -137 6 0 8 -3 4 -6 -7 -8 37 -68 78 -106 103 -95 277 -111
390 -35 96 65 167 212 144 299 -12 46 3 40 38 -16 36 -59 72 -156 78 -215 2
-20 5 -38 5 -41 3 -8 0 -104 -3 -125 -13 -77 -52 -171 -99 -238 -31 -44 -10
-46 27 -3 38 45 103 170 121 231 33 116 33 252 -2 368 -13 45 -57 137 -65 137
-5 0 -9 6 -9 14 0 8 -28 42 -63 77 -67 69 -107 103 -107 92 0 -4 -7 2 -15 13
-8 10 -15 15 -15 10 0 -5 -6 -4 -12 1 -7 6 -26 14 -43 18 -16 5 -37 10 -45 12
-18 6 -141 12 -155 8z m74 -106 c52 -17 134 -52 147 -64 6 -5 23 -19 38 -30
46 -34 79 -99 79 -159 0 -29 -5 -62 -11 -73 -6 -11 -8 -23 -5 -27 3 -3 1 -6
-5 -6 -7 0 -12 -5 -12 -11 0 -16 -61 -69 -100 -86 -125 -54 -368 44 -434 174
-17 34 -29 131 -18 148 4 6 7 13 7 16 0 20 57 82 95 103 36 20 59 26 114 26
38 0 86 -5 105 -11z"/>
<path d="M4845 2318 c4 -29 9 -60 10 -68 4 -23 -13 -129 -31 -187 -15 -49 -17
-52 -57 -58 -23 -4 -51 -9 -62 -11 -11 -2 -63 -7 -115 -10 -123 -7 -129 -9
-101 -35 30 -28 84 -49 112 -44 13 3 33 7 44 9 11 2 40 7 65 11 25 3 53 9 62
11 15 4 14 -3 -8 -58 -94 -234 -222 -427 -376 -566 -26 -25 -48 -48 -48 -53 0
-23 156 80 231 153 90 88 154 195 303 508 l21 45 105 22 c138 29 167 29 176 1
29 -91 -37 -429 -112 -580 -36 -72 -54 -77 -150 -37 -30 12 -57 20 -59 17 -2
-2 14 -26 37 -54 22 -27 51 -73 64 -101 27 -61 41 -65 92 -27 104 80 169 266
217 624 9 64 25 121 42 151 21 35 13 52 -36 84 -50 34 -110 43 -142 22 -37
-23 -219 -65 -219 -50 0 18 39 144 59 188 34 76 31 82 -61 127 -63 31 -71 26
-63 -34z"/>
<path d="M3565 2340 c-3 -5 -3 -15 1 -21 17 -28 21 -81 9 -131 -14 -61 -81
-256 -94 -272 -4 -6 -13 -26 -19 -45 -11 -30 -10 -32 5 -20 9 8 36 41 60 73
25 33 52 61 61 62 9 1 37 5 62 8 25 3 62 8 83 12 47 8 47 0 2 -83 -19 -35 -35
-66 -35 -69 0 -3 17 8 38 24 55 43 111 76 165 96 26 10 47 24 47 31 0 18 -48
52 -100 70 -39 14 -44 13 -82 -6 -40 -20 -157 -50 -169 -43 -9 5 56 189 81
230 17 30 17 35 4 48 -8 9 -34 21 -57 27 -23 6 -45 13 -49 15 -4 2 -9 0 -13
-6z"/>
<path d="M3335 2263 c-11 -3 -83 -20 -160 -39 -144 -35 -206 -42 -262 -30 -37
8 -38 6 -24 -59 29 -128 32 -542 5 -700 -13 -75 -12 -129 3 -152 19 -29 35
-29 68 1 14 13 40 27 58 30 18 3 43 8 57 11 14 3 48 8 75 11 28 4 52 8 55 9 3
2 48 7 100 10 l95 8 -35 -32 c-42 -37 -27 -40 39 -6 95 47 139 105 171 219
l17 59 39 -59 c46 -70 37 -57 121 -166 82 -106 110 -120 225 -117 133 3 162
16 91 40 -176 57 -318 162 -447 332 -30 40 -30 31 -11 163 6 36 3 43 -18 57
-26 17 -77 33 -77 24 0 -2 7 -21 15 -40 35 -85 0 -293 -69 -399 l-30 -47 -27
20 c-32 23 -54 23 -134 3 -33 -8 -71 -17 -85 -20 -14 -2 -34 -6 -46 -9 -12 -3
-39 -7 -60 -11 -21 -3 -57 -10 -79 -15 -22 -4 -43 -9 -47 -9 -5 0 -5 89 -2
198 3 108 7 283 9 387 2 105 4 195 4 200 1 6 32 11 69 12 118 3 372 66 372 92
0 12 -50 28 -75 24z"/>
<path d="M3265 2067 c-36 -20 -128 -34 -169 -25 -21 5 -41 7 -43 4 -3 -3 0
-20 6 -39 7 -19 13 -43 15 -53 8 -39 37 -129 46 -144 8 -13 10 -13 10 1 0 27
21 37 88 44 93 9 114 19 106 49 -5 19 3 34 35 69 38 41 40 45 23 59 -45 40
-88 52 -117 35z m9 -79 c-1 -10 -2 -31 -3 -47 -1 -33 -8 -37 -83 -46 l-56 -7
-4 47 c-5 62 10 72 102 71 36 -1 45 -4 44 -18z"/>
<path d="M3355 1770 c-20 -13 -47 -20 -81 -20 -28 0 -53 -2 -56 -5 -3 -3 0
-22 7 -43 7 -20 16 -64 19 -97 8 -70 18 -85 38 -56 11 15 33 24 74 31 33 6 63
10 68 10 4 0 6 9 3 20 -3 12 8 37 29 67 19 26 34 53 34 60 0 13 -70 53 -92 53
-7 0 -26 -9 -43 -20z m31 -55 c3 -8 2 -32 -3 -52 -7 -33 -14 -39 -51 -50 l-42
-12 0 54 c0 49 2 54 28 63 40 15 62 14 68 -3z"/>
<path d="M3095 1718 c-27 -12 -52 -17 -78 -13 l-38 5 7 -37 c4 -21 10 -45 14
-53 4 -8 11 -39 15 -67 7 -56 18 -73 32 -49 4 7 34 19 67 26 56 11 58 13 53
39 -3 16 2 45 14 71 23 51 20 64 -18 83 -25 13 -32 12 -68 -5z m27 -51 c2 -7
4 -28 4 -47 -1 -30 -6 -38 -35 -52 -19 -10 -36 -16 -38 -14 -8 8 -14 118 -6
113 5 -3 14 -2 21 2 19 11 50 10 54 -2z"/>
</g>
</svg>
